<svg viewBox="0 0 49 22" xmlns="http://www.w3.org/2000/svg" aria-label="Cloudflare">
  <path
    d="M32.3,10.6,26.7,9.3l-1-.4-25.7.2V21.5l32.3.1Z"
    fill="#fff"
  />
  <path
    d="M33.2,20.4a2.85546,2.85546,0,0,0-.3-2.6,3.09428,3.09428,0,0,0-2.1-1.1l-17.4-.2c-.1,0-.2-.1-.3-.1a.1875.1875,0,0,1,0-.3c.1-.2.2-.3.4-.3L31,15.6a6.29223,6.29223,0,0,0,5.1-3.8l1-2.6c0-.1.1-.2,0-.3A11.39646,11.39646,0,0,0,15.2,7.7a5.45941,5.45941,0,0,0-3.6-1A5.20936,5.20936,0,0,0,7,11.3a5.46262,5.46262,0,0,0,.1,1.8A7.30177,7.30177,0,0,0,0,20.4a4.102,4.102,0,0,0,.1,1.1.3193.3193,0,0,0,.3.3H32.5c.2,0,.4-.1.4-.3Z"
    fill="#f48120"
  />
  <path
    d="M38.7,9.2h-.5c-.1,0-.2.1-.3.2l-.7,2.4a2.85546,2.85546,0,0,0,.3,2.6,3.09428,3.09428,0,0,0,2.1,1.1l3.7.2c.1,0,.2.1.3.1a.1875.1875,0,0,1,0,.3c-.1.2-.2.3-.4.3l-3.8.2a6.29223,6.29223,0,0,0-5.1,3.8l-.2.9c-.1.1,0,.3.2.3H47.5a.26517.26517,0,0,0,.3-.3,10.87184,10.87184,0,0,0,.4-2.6,9.56045,9.56045,0,0,0-9.5-9.5"
    fill="#faad3f"
  />
</svg>
